<svg width="25" height="25" viewBox="0 0 25 25" fill="none" xmlns="http://www.w3.org/2000/svg">
<g clip-path="url(#clip0_59_34)">
<path d="M17.9202 7.39814L9.61031 15.708L7.07965 13.1774C6.73094 12.8287 6.16566 12.8287 5.81695 13.1774C5.46824 13.5261 5.46824 14.0914 5.81695 14.4401L8.97896 17.6021C9.15326 17.7765 9.38173 17.8636 9.61031 17.8636C9.83878 17.8636 10.0673 17.7764 10.2417 17.6021L19.1829 8.66074C19.5316 8.31203 19.5316 7.74675 19.1829 7.39804C18.8343 7.04943 18.2688 7.04943 17.9202 7.39814Z" fill="#F9C148"/>
<path d="M12.5 0C5.60744 0 0 5.60744 0 12.5C0 19.3926 5.60744 25 12.5 25C19.3926 25 25 19.3926 25 12.5C25 5.60744 19.3926 0 12.5 0ZM12.5 23.2143C6.59216 23.2143 1.78571 18.4078 1.78571 12.5C1.78571 6.59216 6.59216 1.78571 12.5 1.78571C18.4078 1.78571 23.2143 6.59216 23.2143 12.5C23.2143 18.4078 18.4078 23.2143 12.5 23.2143Z" fill="#F9C148"/>
</g>
<defs>
<clipPath id="clip0_59_34">
<rect width="25" height="25" fill="white"/>
</clipPath>
</defs>
</svg>
